<?xml version="1.0" encoding="UTF-8" standalone="no"?>
<svg width="32px" height="32px" viewBox="0 0 32 32" version="1.1" xmlns="http://www.w3.org/2000/svg" xmlns:xlink="http://www.w3.org/1999/xlink">
    <!-- Generator: Sketch 3.8.3 (29802) - http://www.bohemiancoding.com/sketch -->
    <title>cats</title>
    <desc>Created with Sketch.</desc>
    <defs></defs>
    <g id="Page-1" stroke="none" stroke-width="1" fill="none" fill-rule="evenodd">
        <g id="beta" transform="translate(-542.000000, -72.000000)" fill="#FFFFFF">
            <path d="M567.529412,74 L567.529412,75.8666667 L565.623609,75.8666667 L565.623609,76.2555556 L565.623609,77.7333333 L561.811765,77.7333333 L561.811765,76.2555556 L561.811765,75.8666667 L554.585294,75.8666667 L554.188315,75.8666667 L554.188315,77.7333333 L550.376471,77.7333333 L550.376471,76.2555556 L550.376471,75.8666667 L548.470668,75.8666667 L548.470668,74 L544.5,74 L544.5,81.0777778 L544.5,81.4666667 L546.405962,81.4666667 L546.405962,85.2 L544.897138,85.2 L544.5,85.2 L544.5,93.0555556 L544.897138,93.0555556 L546.405962,93.0555556 L546.405962,96.4777778 L546.802941,96.4777778 L548.470668,96.4777778 L548.470668,97.9166667 L548.470668,98.2666667 L550.376471,98.2666667 L550.376471,99.7833333 L550.376471,100.133333 L554.188315,100.133333 L554.188315,101.611111 L554.188315,102 L561.811765,102 L561.811765,101.611111 L561.811765,100.133333 L565.226471,100.133333 L565.623609,100.133333 L565.623609,98.2666667 L567.132432,98.2666667 L567.529412,98.2666667 L567.529412,96.4777778 L569.197138,96.4777778 L569.594118,96.4777778 L569.594118,93.0555556 L571.102941,93.0555556 L571.5,93.0555556 L571.5,85.2 L569.594118,85.2 L569.594118,81.4666667 L571.102941,81.4666667 L571.5,81.4666667 L571.5,74 L567.529412,74 Z M566.020588,79.5222222 L567.767726,79.5222222 L567.767726,77.8111111 L569.514706,77.8111111 L569.514706,79.5222222 L567.767726,79.5222222 L567.767726,81.2333333 L566.020588,81.2333333 L566.020588,79.5222222 Z M546.485294,77.8111111 L548.232353,77.8111111 L548.232353,79.5222222 L549.979491,79.5222222 L549.979491,81.2333333 L548.232353,81.2333333 L548.232353,79.5222222 L546.485294,79.5222222 L546.485294,77.8111111 Z M562.367647,89.0888889 L564.114706,89.0888889 L564.114706,83.4888889 L562.367647,83.4888889 L562.367647,89.0888889 Z M551.885294,89.0888889 L553.632432,89.0888889 L553.632432,83.4888889 L551.885294,83.4888889 L551.885294,89.0888889 Z M555.379412,90.8 L555.379412,89.0888889 L557.12655,89.0888889 L558.873529,89.0888889 L560.620668,89.0888889 L560.620668,90.8 L560.620668,92.5111111 L558.873529,92.5111111 L558.873529,95.2333333 L561.811765,95.2333333 L561.811765,96.9444444 L558.873529,96.9444444 L558.873529,95.2333333 L557.12655,95.2333333 L557.12655,96.9444444 L554.188315,96.9444444 L554.188315,95.2333333 L557.12655,95.2333333 L557.12655,92.5111111 L555.379412,92.5111111 L555.379412,90.8 Z" id="Page-1"></path>
        </g>
    </g>
</svg>