<?xml version="1.0" encoding="UTF-8" standalone="no"?>
<svg width="32px" height="32px" viewBox="0 0 32 32" version="1.1" xmlns="http://www.w3.org/2000/svg" xmlns:xlink="http://www.w3.org/1999/xlink">
    <!-- Generator: Sketch 39.1 (31720) - http://www.bohemiancoding.com/sketch -->
    <title>Circe</title>
    <desc>Created with Sketch.</desc>
    <defs>
        <path d="M0.9,23.4708768 L13.98215,30.9516381 L27.09455,23.4705772 L27.09455,8.51619345 L13.9823,1.03518253 L0.9,8.51594384 L0.9,23.4708768 Z M13.98165,31.9868206 L0,23.9917629 L0,7.99505772 L13.9818,0 L27.99455,7.99475819 L27.99455,23.9920125 L13.98165,31.9868206 Z" id="path-1"></path>
        <mask id="mask-2" maskContentUnits="userSpaceOnUse" maskUnits="objectBoundingBox" x="0" y="0" width="27.99455" height="31.9868206" fill="white">
            <use xlink:href="#path-1"></use>
        </mask>
        <path d="M19.05044,10.131225 C19.05049,10.3673061 19.02224,10.5995432 18.96789,10.8238927 L20.15744,10.131225 L19.05044,10.131225 Z M11.01849,8.08452293 L17.39204,11.7208911 C17.87014,11.333097 18.15059,10.750707 18.15044,10.131225 L16.05329,10.131225 L16.05329,9.23262902 L17.93749,9.23262902 C17.59644,8.55344025 16.88184,8.08452293 16.05874,8.08452293 L11.01849,8.08452293 Z M12.08744,12.624629 L12.08744,21.2655276 L15.65334,19.2288599 L15.65334,14.6577523 L12.08744,12.624629 Z M11.18744,25.7044418 L11.18744,22.8148069 L8.53219,24.3029816 L7.62954,23.7832936 L11.18744,21.7795744 L11.18744,11.0766477 L16.55334,14.1361173 L16.55334,19.7500456 L12.08744,22.3007601 L12.08744,24.1560112 L18.18754,20.6757491 L18.18754,13.2096649 L7.62954,7.18592699 L16.05874,7.18592699 C17.38864,7.18592699 18.52044,8.04698159 18.90774,9.23262902 L23.48709,9.23262902 L18.31224,12.2458708 L19.08754,12.6882296 L19.08754,21.1971844 L11.18744,25.7044418 Z" id="path-3"></path>
        <mask id="mask-4" maskContentUnits="userSpaceOnUse" maskUnits="objectBoundingBox" x="0" y="0" width="15.85755" height="18.5185148" fill="white">
            <use xlink:href="#path-3"></use>
        </mask>
    </defs>
    <g id="Basic-Elements" stroke="none" stroke-width="1" fill="none" fill-rule="evenodd">
        <g id="Circe" stroke="#FFFFFF" stroke-width="3" fill="#FFFFFF">
            <g id="Group" transform="translate(2.000000, 0.000000)">
                <use id="Path" mask="url(#mask-2)" xlink:href="#path-1"></use>
                <use id="Path" mask="url(#mask-4)" xlink:href="#path-3"></use>
            </g>
        </g>
    </g>
</svg>