<?xml version="1.0" encoding="UTF-8" standalone="no"?>
<svg width="32px" height="32px" viewBox="0 0 32 32" version="1.1" xmlns="http://www.w3.org/2000/svg" xmlns:xlink="http://www.w3.org/1999/xlink">
    <!-- Generator: Sketch 39.1 (31720) - http://www.bohemiancoding.com/sketch -->
    <title>Doobie</title>
    <desc>Created with Sketch.</desc>
    <defs></defs>
    <g id="Basic-Elements" stroke="none" stroke-width="1" fill="none" fill-rule="evenodd">
        <g id="Doobie" fill="#FFFFFF">
            <path d="M12.1486893,15.9966262 C12.1486893,18.1644659 13.8656419,19.9218435 15.9836148,19.9218435 C18.1015876,19.9218435 19.8185403,18.1644659 19.8185403,15.9966262 C19.8185403,13.8287864 18.1015876,12.0714088 15.9836148,12.0714088 C13.8656419,12.0714088 12.1486893,13.8287864 12.1486893,15.9966262 Z M24.6340002,5.83439368 L24.6340002,20.2033325 C24.6340002,20.7319996 24.3572508,21.2202001 23.9087805,21.4824956 L16.7004379,25.6984739 C16.2574854,25.9575281 15.7136306,25.9572825 15.270918,25.6977372 L8.08066382,21.4827411 C7.63286528,21.2202492 7.3565957,20.7324907 7.3565957,20.2042656 L7.3565957,11.7957344 C7.3565957,11.2675093 7.6328173,10.7797508 8.08066382,10.5172589 L15.2710619,6.30226277 C15.7137266,6.04271746 16.2575813,6.04247191 16.7005339,6.30152612 L20.2675206,8.38780874 L20.2675206,3.28053662 L16.700342,1.19410667 C16.2573894,0.935052461 15.7135346,0.93529801 15.270822,1.19484332 L3.72402014,7.96354916 C3.2762216,8.22604105 3,8.71379961 3,9.24202465 L3,22.7580245 C3,23.2862004 3.2762216,23.7739589 3.72402014,24.0364508 L15.2706781,30.8051567 C15.7133907,31.064702 16.2571975,31.0649475 16.70015,30.8058933 L28.2747324,24.0362053 C28.7232026,23.7739098 29,23.2857093 29,22.7569932 L29,9.24300684 C29,8.71429071 28.7232026,8.22609016 28.2747324,7.96379471 L24.6340002,5.83439368 Z" id="Path"></path>
        </g>
    </g>
</svg>