<?xml version="1.0" encoding="UTF-8" standalone="no"?>
<svg width="32px" height="32px" viewBox="0 0 32 32" version="1.1" xmlns="http://www.w3.org/2000/svg" xmlns:xlink="http://www.w3.org/1999/xlink">
    <!-- Generator: Sketch 39 (31667) - http://www.bohemiancoding.com/sketch -->
    <title>doobie</title>
    <desc>Created with Sketch.</desc>
    <defs></defs>
    <g id="Page-1" stroke="none" stroke-width="1" fill="none" fill-rule="evenodd">
        <g id="beta" transform="translate(-732.000000, -72.000000)" fill="#FFFFFF">
            <g id="std_lib-copy" transform="translate(732.000000, 72.000000)">
                <path d="M12.500562,15.9966262 C12.500562,18.1644659 14.2835512,19.9218435 16.4829846,19.9218435 C18.6824179,19.9218435 20.4654072,18.1644659 20.4654072,15.9966262 C20.4654072,13.8287864 18.6824179,12.0714088 16.4829846,12.0714088 C14.2835512,12.0714088 12.500562,13.8287864 12.500562,15.9966262 Z M25.4660771,5.83439368 L25.4660771,20.2033325 C25.4660771,20.7319996 25.1786835,21.2202001 24.7129644,21.4824956 L17.2273778,25.6984739 C16.7673886,25.9575281 16.2026164,25.9572825 15.7428763,25.6977372 L8.27607397,21.4827411 C7.81105241,21.2202492 7.52415707,20.7324907 7.52415707,20.2042656 L7.52415707,11.7957344 C7.52415707,11.2675093 7.81100258,10.7797508 8.27607397,10.5172589 L15.7430258,6.30226277 C16.202716,6.04271746 16.7674883,6.04247191 17.2274775,6.30152612 L20.931656,8.38780874 L20.931656,3.28053662 L17.2272782,1.19410667 C16.767289,0.935052461 16.2025167,0.93529801 15.7427767,1.19484332 L3.75186707,7.96354916 C3.28684551,8.22604105 3,8.71379961 3,9.24202465 L3,22.7580245 C3,23.2862004 3.28684551,23.7739589 3.75186707,24.0364508 L15.7426272,30.8051567 C16.2023673,31.064702 16.7670897,31.0649475 17.2270789,30.8058933 L29.2468375,24.0362053 C29.7125566,23.7739098 30,23.2857093 30,22.7569932 L30,9.24300684 C30,8.71429071 29.7125566,8.22609016 29.2468375,7.96379471 L25.4660771,5.83439368 Z" id="Combined-Shape-Copy-2"></path>
            </g>
        </g>
    </g>
</svg>