<?xml version="1.0" encoding="UTF-8" standalone="no"?>
<svg width="32px" height="32px" viewBox="0 0 32 32" version="1.1" xmlns="http://www.w3.org/2000/svg" xmlns:xlink="http://www.w3.org/1999/xlink">
    <!-- Generator: Sketch 3.8.3 (29802) - http://www.bohemiancoding.com/sketch -->
    <title>fetch</title>
    <desc>Created with Sketch.</desc>
    <defs></defs>
    <g id="Page-1" stroke="none" stroke-width="1" fill="none" fill-rule="evenodd">
        <g id="fetch" fill="#FFFFFF">
            <path d="M27.5795724,10.2114804 C26.7152019,10.2114804 26.0118765,9.52564955 26.0118765,8.68277946 C26.0118765,7.83990937 26.7152019,7.15407855 27.5795724,7.15407855 C28.443943,7.15407855 29.1472684,7.83990937 29.1472684,8.68277946 C29.1472684,9.52564955 28.443943,10.2114804 27.5795724,10.2114804 L27.5795724,10.2114804 Z M15.7028504,26.1933535 C14.8391924,26.1933535 14.1351544,25.5075227 14.1351544,24.6646526 C14.1351544,23.8217825 14.8391924,23.1359517 15.7028504,23.1359517 C16.5672209,23.1359517 17.2712589,23.8217825 17.2712589,24.6646526 C17.2712589,25.5075227 16.5672209,26.1933535 15.7028504,26.1933535 L15.7028504,26.1933535 Z M6.94228029,10.5693353 C7.29287411,10.192719 7.55083135,9.74036254 7.69691211,9.23867069 L12.4263658,9.23867069 C12.8332542,10.6367372 14.1401425,11.6706949 15.7028504,11.6706949 C17.2662708,11.6706949 18.5731591,10.6367372 18.9800475,9.23867069 L24.2168646,9.23867069 C24.2852732,9.63265861 24.427791,9.9981571 24.6251781,10.3330816 L16.9463183,21.5655589 C16.560095,21.4175529 16.1425178,21.3293051 15.7028504,21.3293051 C15.2638955,21.3293051 14.8463183,21.4175529 14.460095,21.5655589 L12.868171,19.2370695 L6.94228029,10.5693353 Z M2.85273159,8.33534743 C2.85273159,7.49247734 3.55605701,6.80664653 4.42042755,6.80664653 C5.2847981,6.80664653 5.98812352,7.49247734 5.98812352,8.33534743 C5.98812352,9.17821752 5.2847981,9.86404834 4.42042755,9.86404834 C3.55605701,9.86404834 2.85273159,9.17821752 2.85273159,8.33534743 L2.85273159,8.33534743 Z M15.7028504,6.80664653 C16.5672209,6.80664653 17.2712589,7.49247734 17.2712589,8.33534743 C17.2712589,9.17821752 16.5672209,9.86404834 15.7028504,9.86404834 C14.8391924,9.86404834 14.1351544,9.17821752 14.1351544,8.33534743 C14.1351544,7.49247734 14.8391924,6.80664653 15.7028504,6.80664653 L15.7028504,6.80664653 Z M27.5795724,5.34743202 C26.1472684,5.34743202 24.9223278,6.2118429 24.4135392,7.43202417 L18.9800475,7.43202417 C18.5731591,6.03326284 17.2662708,5 15.7028504,5 C14.1401425,5 12.8332542,6.03326284 12.4263658,7.43202417 L7.69691211,7.43202417 C7.29002375,6.03326284 5.98384798,5 4.42042755,5 C2.53420428,5 1,6.4960423 1,8.33534743 C1,10.1746526 2.53420428,11.6706949 4.42042755,11.6706949 C4.75178147,11.6706949 5.06532067,11.6095468 5.36817102,11.5240785 L12.984323,22.664139 C12.5503563,23.2228097 12.2831354,23.9114199 12.2831354,24.6646526 C12.2831354,26.5039577 13.8173397,28 15.7028504,28 C17.5890736,28 19.1232779,26.5039577 19.1232779,24.6646526 C19.1232779,23.9114199 18.856057,23.2228097 18.4220903,22.664139 L25.9783848,11.6116314 C26.4579572,11.8624773 26.9980998,12.0181269 27.5795724,12.0181269 C29.4657957,12.0181269 31,10.5220846 31,8.68277946 C31,6.84347432 29.4657957,5.34743202 27.5795724,5.34743202 L27.5795724,5.34743202 Z" id="Fill-1"></path>
        </g>
    </g>
</svg>