<?xml version="1.0" encoding="UTF-8" standalone="no"?>
<svg width="32px" height="32px" viewBox="0 0 32 32" version="1.1" xmlns="http://www.w3.org/2000/svg" xmlns:xlink="http://www.w3.org/1999/xlink">
    <!-- Generator: Sketch 39.1 (31720) - http://www.bohemiancoding.com/sketch -->
    <title>FPis</title>
    <desc>Created with Sketch.</desc>
    <defs></defs>
    <g id="Basic-Elements" stroke="none" stroke-width="1" fill="none" fill-rule="evenodd">
        <g id="FPis">
            <g id="icon" transform="translate(0.000000, 6.000000)">
                <g id="noun_8668_cc">
                    <g id="Group">
                        <g transform="translate(0.000000, 1.693548)"></g>
                        <path d="M16.44,20.6064194 L15.517,20.4059032 L15.517,2.51254839 C15.517,1.18446774 16.5806667,0.104322581 17.8873333,0.104322581 L30.1846667,0.104322581 L30.1846667,18.9355645 L17.928,18.9355645 C17.4146667,18.9352258 16.7366667,19.9323871 16.44,20.6064194 L16.44,20.6064194 Z M16.4816667,2.51254839 L16.4816667,18.7509677 C16.8696667,18.3167419 17.3626667,17.9556774 17.928,17.9556774 L29.2203333,17.9556774 L29.2203333,1.08387097 L17.888,1.08387097 C17.113,1.08387097 16.4816667,1.72504839 16.4816667,2.51254839 Z" id="Shape" fill="#FFFFFF"></path>
                        <path d="M29.7023333,2.02277419 L29.7023333,3.00266129 L30.802,3.00266129 L30.802,19.916129 L16.2536667,19.916129 C16.093,20.1965806 16,20.4059032 16,20.4059032 C16,20.4059032 15.907,20.1965806 15.7463333,19.9157903 L1.19833333,19.9157903 L1.19833333,3.00232258 L2.29766667,3.00232258 L2.29766667,2.02243548 L0.233333333,2.02243548 L0.233333333,20.8953387 L31.7666667,20.8953387 L31.7666667,2.02243548 L29.7023333,2.02243548 L29.7023333,2.02277419 Z" id="Shape" fill="#FFFFFF"></path>
                        <path d="M15.5603333,20.6064194 C15.2616667,19.9330645 14.5823333,18.9352258 14.072,18.9352258 L1.815,18.9352258 L1.815,0.104322581 L14.112,0.104322581 C15.419,0.104322581 16.4816667,1.18446774 16.4816667,2.51254839 L16.4816667,20.4059032 L15.5603333,20.6064194 L15.5603333,20.6064194 Z M2.78,17.9563548 L14.072,17.9563548 C14.6376667,17.9563548 15.13,18.3167419 15.5176667,18.7516452 L15.5176667,2.51254839 C15.5176667,1.72504839 14.8873333,1.08387097 14.112,1.08387097 L2.78,1.08387097 L2.78,17.9563548 L2.78,17.9563548 Z" id="Shape" fill="#FFFFFF"></path>
                    </g>
                </g>
                <polygon id="F" fill="#FFFFFF" points="6.145 5.16 11.815 5.16 11.815 6.21 7.39 6.21 7.39 9.54 11.14 9.54 11.14 10.59 7.39 10.59 7.39 15 6.145 15"></polygon>
                <path d="M20.03,5.16 L23.045,5.16 C23.5850027,5.16 24.0799978,5.2099995 24.53,5.31 C24.9800023,5.4100005 25.3624984,5.57249888 25.6775,5.7975 C25.9925016,6.02250113 26.2374991,6.31999815 26.4125,6.69 C26.5875009,7.06000185 26.675,7.5149973 26.675,8.055 C26.675,8.5750026 26.5875009,9.0249981 26.4125,9.405 C26.2374991,9.7850019 25.9900016,10.0999988 25.67,10.35 C25.3499984,10.6000013 24.9675022,10.7874994 24.5225,10.9125 C24.0774978,11.0375006 23.5850027,11.1 23.045,11.1 L21.275,11.1 L21.275,15 L20.03,15 L20.03,5.16 Z M22.895,10.08 C23.7550043,10.08 24.3924979,9.91750163 24.8075,9.5925 C25.2225021,9.26749838 25.43,8.7550035 25.43,8.055 C25.43,7.34499645 25.2200021,6.85250138 24.8,6.5775 C24.3799979,6.30249863 23.7450043,6.165 22.895,6.165 L21.275,6.165 L21.275,10.08 L22.895,10.08 Z" id="P" fill="#FFFFFF"></path>
            </g>
        </g>
    </g>
</svg>