<?xml version="1.0" encoding="UTF-8" standalone="no"?>
<svg width="32px" height="32px" viewBox="0 0 32 32" version="1.1" xmlns="http://www.w3.org/2000/svg" xmlns:xlink="http://www.w3.org/1999/xlink">
    <!-- Generator: Sketch 3.8.3 (29802) - http://www.bohemiancoding.com/sketch -->
    <title>FPis</title>
    <desc>Created with Sketch.</desc>
    <defs></defs>
    <g id="Basic-Elements" stroke="none" stroke-width="1" fill="none" fill-rule="evenodd">
        <g id="FPis" fill="#FFFFFF">
            <g id="icon" transform="translate(1.000000, 4.000000)">
                <path d="M0,1.16732021e-15 L0,23 L30,23 L30,0 L0,0 L0,1.16732021e-15 Z M14.1666667,21.3571429 L1.66666667,21.3571429 L1.66666667,1.64285714 L14.1666667,1.64285714 L14.1666667,21.3571429 L14.1666667,21.3571429 Z M15.8333333,21.3571429 L15.8333333,1.64285714 L28.3333333,1.64285714 L28.3333333,21.3571429 L15.8333333,21.3571429 Z" id="path"></path>
                <polygon id="path" points="4.54 6.568 11.116 6.568 11.116 8.552 6.892 8.552 6.892 10.968 10.508 10.968 10.508 12.952 6.892 12.952 6.892 17 4.54 17"></polygon>
                <path d="M18.384,6.568 L22.192,6.568 C22.7573362,6.568 23.2879975,6.62399944 23.784,6.736 C24.2800025,6.84800056 24.7119982,7.03466536 25.08,7.296 C25.4480018,7.55733464 25.7386656,7.90399784 25.952,8.336 C26.1653344,8.76800216 26.272,9.29866352 26.272,9.928 C26.272,10.536003 26.1626678,11.0639978 25.944,11.512 C25.7253322,11.9600022 25.4293352,12.3279986 25.056,12.616 C24.6826648,12.9040014 24.2506691,13.1173326 23.76,13.256 C23.2693309,13.3946674 22.7466694,13.464 22.192,13.464 L20.736,13.464 L20.736,17 L18.384,17 L18.384,6.568 Z M22.048,11.592 C23.3280064,11.592 23.968,11.0373389 23.968,9.928 C23.968,9.38399728 23.805335,9.00000112 23.48,8.776 C23.154665,8.55199888 22.6773365,8.44 22.048,8.44 L20.736,8.44 L20.736,11.592 L22.048,11.592 Z" id="path"></path>
            </g>
        </g>
    </g>
</svg>