<?xml version="1.0" encoding="UTF-8" standalone="no"?>
<svg width="28px" height="28px" viewBox="0 0 28 28" version="1.1" xmlns="http://www.w3.org/2000/svg" xmlns:xlink="http://www.w3.org/1999/xlink">
    <!-- Generator: Sketch 3.8.3 (29802) - http://www.bohemiancoding.com/sketch -->
    <title>icon_errored</title>
    <desc>Created with Sketch.</desc>
    <defs></defs>
    <g id="Page-1" stroke="none" stroke-width="1" fill="none" fill-rule="evenodd">
        <g id="icon_errored" transform="translate(2.000000, 0.000000)">
            <polygon id="Background" fill="#F4CDCD" points="11.8489641 2.51913888 1.75684302 8.51734434 1.75684302 20.040868 11.9710693 25.7070416 22.4884387 19.7900276 22.8278318 7.72111675"></polygon>
            <path d="M12.1655172,27.8953167 L12.1519034,27.9031142 L0,20.9273356 L0,6.97577855 L12.1519034,0 L12.1655172,0.00779746928 L12.179131,0 L24.3310345,6.97577855 L24.3310345,20.9273356 L12.179131,27.9031142 L12.1655172,27.8953167 Z M20.7827586,15.9742422 L20.7827586,17.4336332 L20.7827586,18.8930242 L12.1655172,23.8282698 L3.54827586,18.8930242 L3.54827586,17.4336332 L3.54827586,15.9742422 L3.54827586,9.01067128 L4.56324931,8.42799902 L4.56409655,8.42848443 L12.1655172,4.07467897 L19.7669379,8.42848443 L19.7677852,8.42799902 L20.7827586,9.01067128 L20.7827586,15.9742422 Z M17,16.9994 L13.9978,14 L17,11.0006 L14.9994,9 L12,12.0008 L8.9992,9 L7,11.0006 L9.9994,14 L7,16.9994 L8.9992,19 L12,15.9992 L14.9994,19 L17,16.9994 Z" id="Icon" fill="#EF5350"></path>
        </g>
    </g>
</svg>