<?xml version="1.0" encoding="UTF-8" standalone="no"?>
<svg width="32px" height="32px" viewBox="0 0 32 32" version="1.1" xmlns="http://www.w3.org/2000/svg" xmlns:xlink="http://www.w3.org/1999/xlink" xmlns:sketch="http://www.bohemiancoding.com/sketch/ns">
    <!-- Generator: Sketch 3.5.2 (25235) - http://www.bohemiancoding.com/sketch -->
    <title>logo_scala</title>
    <desc>Created with Sketch.</desc>
    <defs></defs>
    <g id="Page-1" stroke="none" stroke-width="1" fill="none" fill-rule="evenodd" sketch:type="MSPage">
        <g id="logo_scala" sketch:type="MSLayerGroup">
            <rect id="Bounds" sketch:type="MSShapeGroup" x="0" y="0" width="32" height="32"></rect>
            <path d="M22.1883408,1.94625177 C17.4798206,3.31918906 10.0209268,4.08863744 6,4.08863744 L6,11.8283828 C6,11.8434701 6.01494768,11.8736445 6.02989537,11.903819 C8.78026906,11.903819 17.2406577,10.9985856 22.3527653,9.58038661 C23.3393124,9.3088166 24.2810164,9.00707214 24.9686099,8.70532768 C25.5964126,8.41867044 26,8.11692598 26,7.81518152 L26,0 C25.9850523,0.739273927 24.0866966,1.38802452 22.1883408,1.94625177 L22.1883408,1.94625177 Z M22.1883408,11.9943423 C19.3781764,12.8090523 15.5814649,13.4276285 12.1136024,13.7746346 C9.79671151,14.0160302 7.61434978,14.136728 6,14.136728 L6,21.8764734 C6,21.8915606 6.01494768,21.921735 6.02989537,21.9519095 C8.78026906,21.9519095 17.2406577,21.0466761 22.3527653,19.6284771 C23.3393124,19.3569071 24.2810164,19.0551627 24.9686099,18.7534182 C25.5964126,18.466761 26,18.1650165 26,17.863272 L26,10.0480905 C25.9850523,10.7873645 24.0866966,11.436115 22.1883408,11.9943423 L22.1883408,11.9943423 Z M22.1883408,22.0424328 C19.3781764,22.8571429 15.5814649,23.475719 12.1136024,23.8227251 C9.78176383,24.0641207 7.61434978,24.1848185 6,24.1848185 L6,32 C8.72047833,32 17.22571,31.0947666 22.3527653,29.6765677 C24.2361734,29.1485149 26,28.5601132 26,27.9113626 L26,20.096181 C25.9850523,20.835455 24.0866966,21.4842056 22.1883408,22.0424328 L22.1883408,22.0424328 Z" id="logo-scala" fill="#14A8BA" sketch:type="MSShapeGroup"></path>
        </g>
    </g>
</svg>