<?xml version="1.0" encoding="UTF-8" standalone="no"?>
<svg width="32px" height="32px" viewBox="0 0 32 32" version="1.1" xmlns="http://www.w3.org/2000/svg" xmlns:xlink="http://www.w3.org/1999/xlink">
    <!-- Generator: Sketch 3.8.3 (29802) - http://www.bohemiancoding.com/sketch -->
    <title>shapeless</title>
    <desc>Created with Sketch.</desc>
    <defs></defs>
    <g id="Page-1" stroke="none" stroke-width="1" fill="none" fill-rule="evenodd">
        <g id="beta" transform="translate(-629.000000, -72.000000)" fill="#FFFFFF">
            <g id="shapeless" transform="translate(629.000000, 72.000000)">
                <g id="Group-3" transform="translate(2.000000, 0.000000)">
                    <path d="M13.9624504,0 L27.9249008,8 L27.9249008,24 L13.9624504,32 L-1.33226763e-14,24 L-2.22044605e-14,8 L13.9624504,0 Z M16.1632653,5.75189873 L16.1632653,16.2765758 L24.3963648,20.1110759 L24.3963648,10.0574278 L16.1632653,5.75189873 Z M3.75510204,21.2085443 L13.3494898,15.4351266 L8.38871173,6.80506329 L3.75510204,21.2085443 Z M14.2040816,27.3012658 C18.1264305,27.3012658 21.3061224,25.6509534 21.3061224,23.6151899 C21.3061224,21.5794263 18.1264305,19.9291139 14.2040816,19.9291139 C10.2817328,19.9291139 7.10204082,21.5794263 7.10204082,23.6151899 C7.10204082,25.6509534 10.2817328,27.3012658 14.2040816,27.3012658 Z" id="Combined-Shape"></path>
                    <path d="M15.6219032,9.0012708 C14.479046,8.4341822 13.0912909,7.70506827 12.4382297,7.38101764 C11.8668011,7.05696701 11.2953726,6.81392903 11.2953726,6.81392903 C11.2137399,6.73291637 11.1321072,7.21899232 11.0504746,7.78608093 C10.723944,10.0544354 10.3157807,11.8367138 9.25455623,15.3202581 C8.03006643,19.0468404 8.03006643,19.1278531 8.11169908,19.4519037 C8.27496439,19.7759543 8.51986235,20.1810176 8.84639296,20.5050683 C9.09129092,20.7481062 9.90761745,21.0721569 10.5606787,21.3151949 C11.9484338,21.8012708 14.3974134,21.9632961 16.1933317,21.7202581 C17.1729236,21.5582328 18.1525154,21.2341822 18.8872093,20.9101316 C19.6219032,20.5050683 20.1116991,20.0189923 20.1933317,19.5329164 C20.356597,19.1278531 20.1933317,18.7227898 19.4586379,16.2113974 C18.6423113,13.8620303 18.3157807,12.4848151 17.9892501,10.5405113 C17.9076175,10.2164607 18.0708828,10.2974733 15.6219032,9.0012708 Z" id="Fill-1"></path>
                </g>
            </g>
        </g>
    </g>
</svg>