<?xml version="1.0" encoding="UTF-8" standalone="no"?>
<svg width="32px" height="32px" viewBox="0 0 32 32" version="1.1" xmlns="http://www.w3.org/2000/svg" xmlns:xlink="http://www.w3.org/1999/xlink">
    <!-- Generator: Sketch 3.8.3 (29802) - http://www.bohemiancoding.com/sketch -->
    <title>std_lib</title>
    <desc>Created with Sketch.</desc>
    <defs>
        <path d="M16.2483739,21.9975 C13.4900358,22.796 9.73144836,23.41 6.33721633,23.7475 C4.03358191,23.993 1.91163148,24.116 0.305110603,24.116 L0.305110603,31.8205 C2.9726067,31.8205 11.368579,30.9305 16.3999417,29.5185 C18.2488725,28.9965 19.9763515,28.4135 19.9763515,27.7685 L19.9763515,20.064 C19.9763515,20.8005 18.0973046,21.4455 16.2483739,21.9975 L16.2483739,21.9975 Z" id="path-1"></path>
    </defs>
    <g id="Page-1" stroke="none" stroke-width="1" fill="none" fill-rule="evenodd">
        <g id="beta" transform="translate(-588.000000, -72.000000)">
            <g id="std_lib" transform="translate(588.000000, 72.000000)">
                <g id="object-+-object-+-object" transform="translate(6.000000, 0.000000)">
                    <path d="M16.2483739,2.137 C11.6109889,3.488 4.27599179,4.255 0.305110603,4.255 L0.305110603,11.8985 L0.335720404,11.96 C3.03333259,11.96 11.368579,11.07 16.3999417,9.658 C17.370075,9.3815 18.3095984,9.105 18.9761021,8.7985 C19.5823737,8.522 19.9763515,8.215 19.9763515,7.908 L19.9763515,0.2035 C19.9763515,0.9705 18.0973046,1.6155 16.2483739,2.137 L16.2483739,2.137 Z" id="object" fill="#FFFFFF"></path>
                    <path d="M16.2483739,12.083 C13.4900358,12.881 9.73144836,13.495 6.33721633,13.8325 C4.06369801,14.078 1.91163148,14.201 0.305110603,14.201 L0.305110603,21.8445 L0.335720404,21.9055 C3.03333259,21.9055 11.368579,21.0155 16.3999417,19.6035 C17.370075,19.327 18.3095984,19.051 18.9761021,18.744 C19.5823737,18.4675 19.9763515,18.1605 19.9763515,17.8535 L19.9763515,10.149 C19.9763515,10.8855 18.0973046,11.53 16.2483739,12.083 L16.2483739,12.083 Z" id="object" fill="#FFFFFF"></path>
                    <mask id="mask-2" fill="white">
                        <use xlink:href="#path-1"></use>
                    </mask>
                    <use id="object" fill="#FFFFFF" xlink:href="#path-1"></use>
                </g>
            </g>
        </g>
    </g>
</svg>