<?xml version="1.0" encoding="UTF-8" standalone="no"?>
<svg width="34px" height="22px" viewBox="0 0 34 22" version="1.1" xmlns="http://www.w3.org/2000/svg" xmlns:xlink="http://www.w3.org/1999/xlink" xmlns:sketch="http://www.w3.org/2000/svg">
    <g id="brand">
        <path d="M13.2020076,5.31108473 L18.8053217,14.6495632 L14.1247577,22 L17.3670234,22 L20.3781501,17.2710542 L23.2159227,22 L26.4031123,22 L22.0186951,14.6943431 L24.0619274,11.4851158 L30.7577343,22 L34,22 L24.0619274,6.39233314 L20.4458666,12.0728522 L13.2020076,0 L0,22 L3.18718963,22 L8.05465119,13.8883046 L13.2020076,5.31108473 Z" id="Shape" fill="#FFFFFF" sketch:type="MSShapeGroup"></path>
    </g>
    <g id="brand-light">
         <path d="M11.6488302,28.5868459 L16.5929309,36.6518955 L12.4630215,43 L15.3238442,43 L17.9807207,38.9159104 L20.4846377,43 L23.2968638,43 L19.4282604,36.6905691 L21.2311124,33.9189636 L27.1391773,43 L30,43 L21.2311124,29.5206513 L18.0404706,34.4265542 L11.6488302,24 L0,43 L2.81222615,43 L7.10704517,35.9944449 L11.6488302,28.5868459 Z" id="shape" fill-opacity="0.25" fill="#FFFFFF" sketch:type="MSShapeGroup"></path>
    </g>
    <g id="brand-dark">
         <path d="M11.6488302,28.5868459 L16.5929309,36.6518955 L12.4630215,43 L15.3238442,43 L17.9807207,38.9159104 L20.4846377,43 L23.2968638,43 L19.4282604,36.6905691 L21.2311124,33.9189636 L27.1391773,43 L30,43 L21.2311124,29.5206513 L18.0404706,34.4265542 L11.6488302,24 L0,43 L2.81222615,43 L7.10704517,35.9944449 L11.6488302,28.5868459 Z" id="shape" fill-opacity="0.25" fill="#000000" sketch:type="MSShapeGroup"></path>
    </g>    
</svg>
